<svg xmlns="http://www.w3.org/2000/svg" xmlns:xlink="http://www.w3.org/1999/xlink" viewBox="0 0 118.27 118.27"><defs><style>.cls-1{isolation:isolate;}.cls-2{fill:url(#New_Gradient_Swatch_29);}.cls-3{fill:url(#New_Gradient_Swatch_35);}.cls-4{fill:#ffffd6;opacity:0.25;}.cls-5,.cls-6{fill:#975c3e;}.cls-5{mix-blend-mode:screen;}.cls-6{font-size:14px;font-family:Lato-Bold, Lato;font-weight:700;}</style><linearGradient id="New_Gradient_Swatch_29" x1="59.13" y1="19.99" x2="59.13" y2="168.21" gradientTransform="translate(103.38 -11.83) rotate(76.94)" gradientUnits="userSpaceOnUse"><stop offset="0" stop-color="#d28759"/><stop offset="0.23" stop-color="#ffe39b"/><stop offset="0.35" stop-color="#efc384"/><stop offset="0.62" stop-color="#c8734b"/><stop offset="0.93" stop-color="#945f4b"/><stop offset="1" stop-color="#875a4b"/></linearGradient><radialGradient id="New_Gradient_Swatch_35" cx="59.36" cy="59.05" r="34.06" gradientTransform="translate(103.32 -11.86) rotate(76.9)" gradientUnits="userSpaceOnUse"><stop offset="0" stop-color="#ffe39b"/><stop offset="0.18" stop-color="#efc384"/><stop offset="0.59" stop-color="#c8734b"/><stop offset="0.92" stop-color="#945f4b"/><stop offset="1" stop-color="#875a4b"/></radialGradient></defs><title>bronze</title><g class="cls-1"><g id="Layer_2" data-name="Layer 2"><g id="badge"><circle class="cls-2" cx="59.13" cy="59.13" r="59.13" transform="translate(-11.83 103.38) rotate(-76.94)"/><circle class="cls-3" cx="59.13" cy="59.13" r="28.37" transform="translate(-11.86 103.32) rotate(-76.9)"/><polygon class="cls-4" points="85.9 59.26 63.86 59.61 85.63 63.05 63.77 60.28 84.82 66.8 63.58 60.91 83.48 70.38 63.3 61.52 81.65 73.74 62.94 62.09 79.36 76.79 62.49 62.61 76.67 79.48 61.97 63.06 73.61 81.77 61.4 63.43 70.26 83.61 60.79 63.7 66.67 84.94 60.15 63.89 62.93 85.76 59.48 63.99 59.13 86.02 58.78 63.99 55.34 85.76 58.11 63.89 51.59 84.94 57.48 63.7 48.01 83.61 56.87 63.43 44.65 81.77 56.3 63.06 41.6 79.48 55.78 62.61 38.91 76.79 55.33 62.09 36.62 73.74 54.96 61.52 34.78 70.38 54.68 60.91 33.44 66.79 54.5 60.28 32.63 63.05 54.4 59.61 32.36 59.26 54.4 58.91 32.63 55.46 54.5 58.24 33.44 51.72 54.68 57.6 34.78 48.13 54.96 56.99 36.62 44.77 55.33 56.42 38.91 41.72 55.78 55.9 41.6 39.03 56.3 55.45 44.65 36.74 56.87 55.09 48.01 34.91 57.48 54.81 51.59 33.57 58.11 54.62 55.34 32.76 58.78 54.52 59.13 32.49 59.48 54.52 62.93 32.76 60.15 54.62 66.67 33.57 60.79 54.81 70.26 34.91 61.4 55.09 73.61 36.74 61.97 55.45 76.67 39.03 62.49 55.9 79.36 41.72 62.94 56.42 81.65 44.77 63.3 56.99 83.48 48.13 63.58 57.6 84.82 51.72 63.77 58.24 85.63 55.46 63.86 58.91 85.9 59.26"/><polygon class="cls-5" points="59.13 69.03 43.42 79.97 48.96 61.64 33.71 50.08 52.85 49.69 59.13 31.6 65.42 49.69 84.56 50.08 69.3 61.64 74.85 79.97 59.13 69.03"/><text class="cls-6" transform="translate(32.16 35.32) rotate(-40.73)">B</text><text class="cls-6" transform="translate(39.84 28.87) rotate(-25.03)">R</text><text class="cls-6" transform="translate(48.55 24.72) rotate(-7.88)">O</text><text class="cls-6" transform="matrix(0.98, 0.18, -0.18, 0.98, 60.45, 23.22)">N</text><text class="cls-6" transform="translate(71.75 25.61) rotate(27.12)">Z</text><text class="cls-6" transform="translate(79.96 29.96) rotate(41.5)">E</text><text class="cls-6" transform="matrix(0.64, 0.77, -0.77, 0.64, 20.5, 86.75)">S</text><text class="cls-6" transform="translate(28.03 95.18) rotate(35.93)">P</text><text class="cls-6" transform="translate(38.62 102.34) rotate(18.79)">O</text><text class="cls-6" transform="translate(53.49 106.57) rotate(0.93)">N</text><text class="cls-6" transform="translate(68.28 105.93) rotate(-15.81)">S</text><text class="cls-6" transform="matrix(0.85, -0.53, 0.53, 0.85, 79.42, 102.45)">O</text><text class="cls-6" transform="matrix(0.65, -0.76, 0.76, 0.65, 92, 93.58)">R</text></g></g></g></svg>