<svg xmlns="http://www.w3.org/2000/svg" xmlns:xlink="http://www.w3.org/1999/xlink" viewBox="0 0 118.27 118.27"><defs><style>.cls-1{isolation:isolate;}.cls-2{fill:url(#New_Gradient_Swatch_5);}.cls-3{fill:url(#New_Gradient_Swatch_11);}.cls-4,.cls-5,.cls-6{fill:#917340;}.cls-4{opacity:0.25;}.cls-5{mix-blend-mode:screen;}.cls-6{font-size:14px;font-family:Lato-Bold, Lato;font-weight:700;}</style><linearGradient id="New_Gradient_Swatch_5" x1="59.13" y1="-45.94" x2="59.13" y2="139.47" gradientUnits="userSpaceOnUse"><stop offset="0" stop-color="#c49a4d"/><stop offset="0.43" stop-color="#fdfade"/><stop offset="0.71" stop-color="#f1c86a"/><stop offset="1" stop-color="#c09049"/></linearGradient><radialGradient id="New_Gradient_Swatch_11" cx="98.11" cy="-55.56" r="34.15" gradientTransform="translate(-34.7 113.69) scale(0.96)" gradientUnits="userSpaceOnUse"><stop offset="0" stop-color="#fdea9b"/><stop offset="0.4" stop-color="#f5d47b"/><stop offset="0.59" stop-color="#f1c86a"/><stop offset="0.68" stop-color="#eac166"/><stop offset="0.81" stop-color="#d5ae5a"/><stop offset="0.96" stop-color="#b48f47"/><stop offset="1" stop-color="#aa8641"/></radialGradient></defs><title>gold</title><g class="cls-1"><g id="Layer_2" data-name="Layer 2"><g id="badge"><circle class="cls-2" cx="59.13" cy="59.13" r="59.13"/><circle class="cls-3" cx="59.13" cy="59.13" r="28.37"/><polygon class="cls-4" points="85.9 59.26 63.86 59.61 85.63 63.05 63.77 60.28 84.82 66.8 63.58 60.91 83.48 70.38 63.3 61.52 81.65 73.74 62.94 62.09 79.36 76.79 62.49 62.61 76.67 79.48 61.97 63.06 73.61 81.77 61.4 63.43 70.26 83.61 60.79 63.7 66.67 84.94 60.15 63.89 62.93 85.76 59.48 63.99 59.13 86.02 58.78 63.99 55.34 85.76 58.11 63.89 51.59 84.94 57.48 63.7 48.01 83.61 56.87 63.43 44.65 81.77 56.3 63.06 41.6 79.48 55.78 62.61 38.91 76.79 55.33 62.09 36.62 73.74 54.96 61.52 34.78 70.38 54.68 60.91 33.44 66.79 54.5 60.28 32.63 63.05 54.4 59.61 32.36 59.26 54.4 58.91 32.63 55.46 54.5 58.24 33.44 51.72 54.68 57.6 34.78 48.13 54.96 56.99 36.62 44.77 55.33 56.42 38.91 41.72 55.78 55.9 41.6 39.03 56.3 55.45 44.65 36.74 56.87 55.09 48.01 34.91 57.48 54.81 51.59 33.57 58.11 54.62 55.34 32.76 58.78 54.52 59.13 32.49 59.48 54.52 62.93 32.76 60.15 54.62 66.67 33.57 60.79 54.81 70.26 34.91 61.4 55.09 73.61 36.74 61.97 55.45 76.67 39.03 62.49 55.9 79.36 41.72 62.94 56.42 81.65 44.77 63.3 56.99 83.48 48.13 63.58 57.6 84.82 51.72 63.77 58.24 85.63 55.46 63.86 58.91 85.9 59.26"/><polygon class="cls-5" points="59.13 70.35 43.42 81.28 48.96 62.96 33.71 51.39 52.85 51 59.13 32.92 65.42 51 84.56 51.39 69.3 62.96 74.85 81.28 59.13 70.35"/><text class="cls-6" transform="translate(41.01 27.6) rotate(-21.87)">G</text><text class="cls-6" transform="translate(49.85 23.88) rotate(-5.75)">O</text><text class="cls-6" transform="translate(60.57 22.98) rotate(7.97)">L</text><text class="cls-6" transform="translate(67.33 23.66) rotate(21.43)">D</text><text class="cls-6" transform="matrix(0.72, 0.69, -0.69, 0.72, 23.72, 90.36)">S</text><text class="cls-6" transform="translate(30.73 96.91) rotate(31.71)">P</text><text class="cls-6" transform="matrix(0.96, 0.29, -0.29, 0.96, 40.21, 102.6)">O</text><text class="cls-6" transform="translate(53.49 106.11) rotate(0.93)">N</text><text class="cls-6" transform="translate(66.55 105.77) rotate(-13.67)">S</text><text class="cls-6" transform="matrix(0.88, -0.47, 0.47, 0.88, 76.2, 103.36)">O</text><text class="cls-6" transform="translate(88.07 96.52) rotate(-43.21)">R</text></g></g></g></svg>