<svg xmlns="http://www.w3.org/2000/svg" xmlns:xlink="http://www.w3.org/1999/xlink" viewBox="0 0 118.27 118.27"><defs><style>.cls-1{isolation:isolate;}.cls-2{fill:url(#New_Gradient_Swatch_28);}.cls-3{fill:url(#New_Gradient_Swatch_27);}.cls-4,.cls-5,.cls-6{fill:#636563;}.cls-4{opacity:0.25;}.cls-5{mix-blend-mode:screen;}.cls-6{font-size:14px;font-family:Lato-Bold, Lato;font-weight:700;}</style><linearGradient id="New_Gradient_Swatch_28" x1="59.13" y1="7.54" x2="59.13" y2="170.82" gradientUnits="userSpaceOnUse"><stop offset="0" stop-color="#ccc"/><stop offset="0.2" stop-color="#f2f2f2"/><stop offset="0.31" stop-color="#e5e5e5"/><stop offset="0.51" stop-color="#c4c4c4"/><stop offset="0.66" stop-color="#a6a6a6"/><stop offset="0.84" stop-color="#8e8e8e"/><stop offset="1" stop-color="#737373"/></linearGradient><radialGradient id="New_Gradient_Swatch_27" cx="98.11" cy="-49.23" r="34.15" gradientTransform="translate(-34.7 107.62) scale(0.96)" gradientUnits="userSpaceOnUse"><stop offset="0" stop-color="#f2f2f2"/><stop offset="0.14" stop-color="#e5e5e5"/><stop offset="0.39" stop-color="#c4c4c4"/><stop offset="0.59" stop-color="#a6a6a6"/><stop offset="0.76" stop-color="#8e8e8e"/><stop offset="1" stop-color="#666"/></radialGradient></defs><title>silver</title><g class="cls-1"><g id="Layer_2" data-name="Layer 2"><g id="badge"><circle class="cls-2" cx="59.13" cy="59.13" r="59.13"/><circle class="cls-3" cx="59.13" cy="59.13" r="28.37"/><polygon class="cls-4" points="85.9 59.26 63.86 59.61 85.63 63.05 63.77 60.28 84.82 66.8 63.58 60.91 83.48 70.38 63.3 61.52 81.65 73.74 62.94 62.09 79.36 76.79 62.49 62.61 76.67 79.48 61.97 63.06 73.61 81.77 61.4 63.43 70.26 83.61 60.79 63.7 66.67 84.94 60.15 63.89 62.93 85.76 59.48 63.99 59.13 86.02 58.78 63.99 55.34 85.76 58.11 63.89 51.59 84.94 57.48 63.7 48.01 83.61 56.87 63.43 44.65 81.77 56.3 63.06 41.6 79.48 55.78 62.61 38.91 76.79 55.33 62.09 36.62 73.74 54.96 61.52 34.78 70.38 54.68 60.91 33.44 66.79 54.5 60.28 32.63 63.05 54.4 59.61 32.36 59.26 54.4 58.91 32.63 55.46 54.5 58.24 33.44 51.72 54.68 57.6 34.78 48.13 54.96 56.99 36.62 44.77 55.33 56.42 38.91 41.72 55.78 55.9 41.6 39.03 56.3 55.45 44.65 36.74 56.87 55.09 48.01 34.91 57.48 54.81 51.59 33.57 58.11 54.62 55.34 32.76 58.78 54.52 59.13 32.49 59.48 54.52 62.93 32.76 60.15 54.62 66.67 33.57 60.79 54.81 70.26 34.91 61.4 55.09 73.61 36.74 61.97 55.45 76.67 39.03 62.49 55.9 79.36 41.72 62.94 56.42 81.65 44.77 63.3 56.99 83.48 48.13 63.58 57.6 84.82 51.72 63.77 58.24 85.63 55.46 63.86 58.91 85.9 59.26"/><polygon class="cls-5" points="59.13 69.5 43.42 80.44 48.96 62.11 33.71 50.55 52.85 50.16 59.13 32.07 65.42 50.16 84.56 50.55 69.3 62.11 74.85 80.44 59.13 69.5"/><text class="cls-6" transform="matrix(0.84, -0.54, 0.54, 0.84, 36.37, 30.98)">S</text><text class="cls-6" transform="translate(43.75 26.51) rotate(-21.96)">I</text><text class="cls-6" transform="translate(48.48 24.54) rotate(-11.29)">L</text><text class="cls-6" transform="translate(55.29 23.01) rotate(1.59)">V</text><text class="cls-6" transform="matrix(0.96, 0.29, -0.29, 0.96, 65.8, 23.52)">E</text><text class="cls-6" transform="matrix(0.85, 0.53, -0.53, 0.85, 74.28, 26.15)">R</text><text class="cls-6" transform="matrix(0.64, 0.77, -0.77, 0.64, 20.5, 86.29)">S</text><text class="cls-6" transform="translate(28.03 94.71) rotate(35.93)">P</text><text class="cls-6" transform="translate(38.62 101.87) rotate(18.79)">O</text><text class="cls-6" transform="translate(53.49 106.11) rotate(0.93)">N</text><text class="cls-6" transform="translate(68.28 105.46) rotate(-15.81)">S</text><text class="cls-6" transform="matrix(0.85, -0.53, 0.53, 0.85, 79.42, 101.98)">O</text><text class="cls-6" transform="matrix(0.65, -0.76, 0.76, 0.65, 92, 93.12)">R</text></g></g></g></svg>