<?xml version="1.0" encoding="UTF-8"?><svg id="Ebene_1" xmlns="http://www.w3.org/2000/svg" xmlns:xlink="http://www.w3.org/1999/xlink" viewBox="0 0 416.47 416.05"><defs><style>.cls-1{opacity:.98;}.cls-2{clip-path:url(#clippath-1);}.cls-3{fill:url(#Unbenannter_Verlauf_70);}.cls-4{stroke:#2972a1;stroke-miterlimit:10;stroke-width:.05px;}.cls-4,.cls-5{fill:#2972a1;}.cls-6{fill:url(#Unbenannter_Verlauf_553);}.cls-7{fill:none;}.cls-8{fill:url(#Unbenannter_Verlauf_64);}.cls-9{fill:#80b7d0;opacity:.39;}</style><linearGradient id="Unbenannter_Verlauf_553" x1="208.24" y1="416.05" x2="208.24" y2="2.96" gradientTransform="translate(209.13 -85.88) rotate(45)" gradientUnits="userSpaceOnUse"><stop offset="0" stop-color="#3aaae6"/><stop offset="0" stop-color="#57b2e7"/><stop offset=".05" stop-color="#71bce8"/><stop offset=".71" stop-color="#dce8f8"/><stop offset=".75" stop-color="#c7daee"/><stop offset=".92" stop-color="#81adcd"/><stop offset="1" stop-color="#669bc0"/></linearGradient><radialGradient id="Unbenannter_Verlauf_70" cx="208.87" cy="209.5" fx="208.87" fy="209.5" r="100.44" gradientUnits="userSpaceOnUse"><stop offset="0" stop-color="#a5d1e9"/><stop offset=".27" stop-color="#9bc8e3"/><stop offset=".73" stop-color="#81b3d3"/><stop offset="1" stop-color="#6fa4c9"/></radialGradient><clipPath id="clippath-1"><path class="cls-7" d="m416.44,207.88c0,114.81-93.22,207.88-208.22,207.88S0,322.69,0,207.88,93.22,0,208.22,0s208.22,93.07,208.22,207.88h0Z"/></clipPath><radialGradient id="Unbenannter_Verlauf_64" cx="208.24" cy="200.75" fx="208.24" fy="200.75" r="87.3" gradientUnits="userSpaceOnUse"><stop offset="0" stop-color="#dce8f8"/><stop offset="1" stop-color="#d6e3f5"/></radialGradient></defs><g class="cls-1"><circle class="cls-6" cx="208.24" cy="209.5" r="206.54" transform="translate(-87.15 208.61) rotate(-45)"/></g><circle class="cls-3" cx="208.87" cy="209.5" r="100.44"/><g class="cls-2"><polygon class="cls-8" points="208.22 247.33 152.9 285.76 172.41 221.35 118.71 180.67 186.1 179.3 208.22 115.74 230.37 179.3 297.77 180.67 244.03 221.35 263.57 285.76 208.22 247.33 208.22 247.33 208.22 247.33"/><path class="cls-5" d="m120.17,312.53c-.38.11-.7.15-.97.11-.27-.04-.52-.17-.76-.4-.25-.24-.43-.59-.54-1.05s-.26-1-.45-1.6c-.19-.61-.46-1.26-.82-1.96-.36-.7-.91-1.4-1.64-2.1-.66-.63-1.32-1.11-1.97-1.42-.65-.32-1.28-.49-1.89-.53-.61-.04-1.19.06-1.73.3-.55.24-1.05.59-1.5,1.06-.58.6-.89,1.27-.94,1.99-.05.72.07,1.49.35,2.31.28.82.67,1.68,1.17,2.58.49.9.99,1.84,1.49,2.81.5.97.95,1.96,1.33,2.97.39,1.02.61,2.05.67,3.09.06,1.05-.09,2.1-.47,3.17-.38,1.07-1.08,2.13-2.1,3.19-1.11,1.16-2.35,2.05-3.72,2.68-1.37.63-2.79.96-4.27.98-1.48.02-2.98-.28-4.5-.9-1.51-.62-2.98-1.61-4.4-2.97-.82-.78-1.54-1.63-2.18-2.55s-1.18-1.87-1.63-2.86c-.44-.99-.79-2-1.03-3.02-.24-1.02-.37-2.03-.38-3.01l3.6-.94c.28-.05.56-.04.86.03.3.07.55.21.76.41.3.28.5.71.61,1.28.11.57.26,1.23.45,1.98.19.75.48,1.55.89,2.39.4.85,1.04,1.7,1.93,2.55,1.36,1.3,2.72,1.99,4.09,2.06,1.36.07,2.62-.5,3.78-1.7.65-.67,1-1.38,1.08-2.13.07-.75-.03-1.53-.31-2.35-.28-.82-.68-1.67-1.19-2.55-.52-.88-1.03-1.79-1.54-2.73-.51-.94-.96-1.91-1.35-2.92-.39-1.01-.61-2.05-.66-3.11-.05-1.06.15-2.16.57-3.28.43-1.12,1.2-2.26,2.33-3.43.9-.93,1.96-1.66,3.18-2.19,1.22-.53,2.52-.8,3.89-.8,1.37,0,2.77.28,4.21.87,1.44.58,2.83,1.52,4.18,2.81,1.51,1.45,2.68,3.02,3.51,4.72.82,1.7,1.28,3.4,1.36,5.11l-3.35,1.11Z"/><path class="cls-5" d="m130.76,333.82c1.03.64,2.02,1.07,2.94,1.28s1.8.24,2.61.07c.81-.17,1.55-.52,2.23-1.05.68-.54,1.28-1.23,1.81-2.08.5-.81.83-1.62.98-2.43s.12-1.6-.1-2.37-.64-1.52-1.25-2.23c-.62-.72-1.45-1.4-2.5-2.05l-4.21-2.6-6.72,10.87,4.21,2.6h0Zm9.42-15.22c2.03,1.25,3.63,2.57,4.82,3.96s2,2.81,2.44,4.25.52,2.91.26,4.38c-.27,1.48-.83,2.92-1.71,4.33-.91,1.47-1.98,2.66-3.23,3.58-1.25.92-2.63,1.52-4.15,1.79-1.52.28-3.17.2-4.95-.22-1.78-.42-3.65-1.24-5.62-2.46l-4.21-2.6-6.59,10.66-5.64-3.48,18.73-30.27,9.86,6.08h0Z"/><path class="cls-5" d="m183.2,354.62c-.76,2.5-1.87,4.7-3.35,6.58-1.47,1.88-3.2,3.38-5.19,4.48s-4.18,1.77-6.57,2c-2.39.23-4.89-.04-7.5-.83-2.59-.78-4.81-1.93-6.68-3.45s-3.32-3.28-4.37-5.3-1.67-4.22-1.86-6.61c-.19-2.39.09-4.83.85-7.34.76-2.5,1.88-4.7,3.36-6.58,1.48-1.88,3.22-3.37,5.21-4.47,1.99-1.1,4.19-1.77,6.58-2,2.39-.23,4.88.04,7.47.82,1.74.52,3.31,1.22,4.72,2.08,1.41.86,2.64,1.85,3.7,2.97,1.06,1.12,1.93,2.35,2.64,3.71s1.21,2.78,1.53,4.29c.32,1.51.44,3.07.35,4.69-.09,1.62-.38,3.27-.89,4.94h0Zm-6.51-1.96c.57-1.87.82-3.63.77-5.27-.05-1.64-.39-3.12-1.01-4.44-.62-1.32-1.51-2.46-2.67-3.41-1.17-.95-2.59-1.68-4.26-2.19-1.67-.5-3.26-.68-4.76-.53s-2.88.6-4.13,1.36c-1.25.76-2.36,1.8-3.31,3.14-.96,1.34-1.72,2.94-2.28,4.82s-.82,3.63-.77,5.27c.05,1.64.39,3.12,1.02,4.43.63,1.31,1.52,2.45,2.69,3.4,1.17.95,2.59,1.68,4.26,2.19,1.67.5,3.26.68,4.76.53,1.5-.15,2.87-.6,4.11-1.35,1.24-.75,2.34-1.79,3.3-3.13.96-1.34,1.72-2.94,2.28-4.82h0Z"/><path class="cls-5" d="m222.95,338.02l-.58,35.58-3.4-.06c-.53,0-.96-.1-1.31-.28-.35-.18-.69-.47-1.01-.89l-18.22-24.02c.08,1.08.11,2.09.1,3l-.36,21.85-5.84-.09.58-35.58,3.48.06c.28,0,.52.02.73.05.2.03.38.08.54.16.15.08.31.19.45.33s.31.33.48.56l18.29,24.12c-.04-.57-.07-1.14-.1-1.7-.02-.56-.03-1.08-.02-1.55l.35-21.63,5.84.09h0Z"/><path class="cls-5" d="m249.75,338.15c-.11.38-.25.67-.43.88s-.43.34-.75.42c-.34.08-.73.05-1.18-.11-.45-.15-.99-.31-1.6-.48-.62-.17-1.32-.29-2.11-.36-.79-.07-1.68.01-2.67.25-.89.22-1.65.51-2.27.89-.62.38-1.11.81-1.47,1.31s-.59,1.03-.68,1.62-.06,1.2.09,1.84c.2.81.59,1.44,1.18,1.87s1.3.75,2.15.95,1.78.34,2.81.41c1.03.07,2.09.15,3.18.25,1.09.1,2.17.26,3.24.48,1.07.22,2.06.59,2.98,1.1s1.73,1.21,2.43,2.11c.7.89,1.22,2.06,1.57,3.49.38,1.56.47,3.09.27,4.58-.2,1.49-.7,2.87-1.48,4.13-.78,1.26-1.85,2.36-3.19,3.31-1.34.94-2.97,1.65-4.89,2.11-1.1.27-2.21.42-3.34.47-1.12.04-2.22-.01-3.3-.17-1.08-.16-2.12-.41-3.12-.76-1-.35-1.92-.78-2.75-1.31l1.14-3.54c.11-.26.27-.5.49-.71.22-.21.47-.36.76-.42.4-.1.87-.04,1.41.18.54.21,1.18.44,1.92.69.74.24,1.57.42,2.5.54.93.12,2,.03,3.2-.26,1.84-.45,3.15-1.23,3.95-2.34.79-1.11.99-2.48.6-4.11-.22-.91-.63-1.59-1.22-2.06-.59-.46-1.32-.8-2.16-1.01s-1.78-.33-2.8-.37c-1.02-.04-2.07-.1-3.14-.18-1.07-.08-2.13-.22-3.2-.44-1.07-.21-2.06-.59-2.99-1.12s-1.75-1.29-2.46-2.25c-.72-.97-1.27-2.24-1.65-3.82-.31-1.26-.35-2.55-.14-3.87.21-1.32.68-2.56,1.42-3.71.73-1.16,1.73-2.19,3-3.08,1.27-.9,2.81-1.57,4.63-2.01,2.04-.5,4.01-.63,5.89-.42,1.88.22,3.57.75,5.06,1.61l-.86,3.43Z"/><path class="cls-5" d="m293.36,329.91c1.23,2.3,1.99,4.62,2.27,6.99.29,2.36.12,4.63-.5,6.8-.62,2.17-1.7,4.18-3.22,6.02-1.52,1.84-3.48,3.4-5.86,4.67-2.37,1.26-4.75,2.02-7.13,2.26-2.38.24-4.65.02-6.81-.67-2.16-.69-4.15-1.8-5.96-3.35-1.81-1.55-3.33-3.47-4.56-5.76-1.23-2.3-1.98-4.63-2.26-6.99-.28-2.36-.1-4.63.53-6.81.63-2.17,1.71-4.18,3.23-6.02,1.52-1.84,3.47-3.4,5.84-4.66,1.59-.85,3.19-1.46,4.79-1.84,1.6-.38,3.16-.55,4.7-.5,1.53.05,3.02.3,4.47.76s2.81,1.11,4.1,1.95c1.28.84,2.47,1.86,3.55,3.06,1.08,1.2,2.03,2.57,2.85,4.1h0Zm-5.97,3.18c-.92-1.72-1.97-3.14-3.17-4.25-1.19-1.12-2.47-1.93-3.83-2.42s-2.79-.67-4.28-.53c-1.49.15-3,.63-4.54,1.45-1.53.82-2.78,1.8-3.73,2.96-.95,1.16-1.6,2.44-1.95,3.85-.35,1.41-.39,2.92-.13,4.53.27,1.61.86,3.28,1.78,4.99s1.97,3.14,3.17,4.25c1.19,1.12,2.47,1.92,3.84,2.41,1.37.49,2.8.66,4.29.51,1.49-.15,3-.63,4.54-1.45s2.78-1.8,3.73-2.96c.95-1.16,1.6-2.44,1.95-3.84.35-1.4.39-2.91.12-4.52-.27-1.61-.86-3.28-1.78-4.99h0Z"/><path class="cls-5" d="m308.08,315.66c.91-.85,1.6-1.71,2.06-2.57.46-.86.72-1.7.78-2.51.06-.81-.06-1.59-.36-2.34-.3-.75-.76-1.46-1.38-2.11-1.24-1.32-2.62-1.92-4.15-1.81-1.53.11-3.19,1-4.98,2.67l-3.09,2.9,8.1,8.61,3.02-2.83h0Zm25.23,1.94l-4.37,4.09c-.83.78-1.73,1.01-2.71.72l-13.28-3.18c-.5-.12-.93-.13-1.3-.03s-.79.37-1.27.82l-2.07,1.94,9.54,10.13-4.83,4.53-24.4-25.94,7.92-7.43c1.76-1.65,3.44-2.89,5.05-3.71,1.61-.82,3.12-1.28,4.55-1.38,1.43-.1,2.76.13,4.01.68,1.24.56,2.38,1.38,3.42,2.48.82.87,1.47,1.82,1.94,2.84.47,1.02.77,2.07.88,3.16.11,1.09.04,2.21-.23,3.35-.26,1.15-.72,2.28-1.37,3.41.48-.11.97-.17,1.46-.17.49,0,1.01.06,1.54.2l15.52,3.48Z"/><polygon class="cls-9" points="295.87 211.38 224.4 212.51 294.99 223.65 224.11 214.68 292.37 235.79 223.49 216.72 288.02 247.38 222.59 218.69 282.09 258.25 221.42 220.54 274.66 268.13 219.96 222.22 265.94 276.84 218.27 223.68 256.02 284.25 216.43 224.88 245.16 290.21 214.45 225.75 233.51 294.51 212.37 226.37 221.39 297.17 210.2 226.69 209.06 298.01 207.93 226.69 196.78 297.17 205.76 226.37 184.62 294.51 203.71 225.75 173.01 290.21 201.74 224.88 162.11 284.25 199.89 223.68 152.22 276.84 198.2 222.22 143.5 268.13 196.74 220.54 136.07 258.25 195.54 218.69 130.11 247.38 194.64 216.72 125.76 235.75 194.05 214.68 123.14 223.65 193.73 212.51 122.26 211.38 193.73 210.24 123.14 199.07 194.05 208.07 125.76 186.97 194.64 206 130.11 175.34 195.54 204.03 136.07 164.47 196.74 202.18 143.5 154.59 198.2 200.5 152.22 145.88 199.89 199.04 162.11 138.47 201.74 197.88 173.01 132.55 203.71 196.97 184.62 128.21 205.76 196.36 196.78 125.59 207.93 196.03 209.06 124.71 210.2 196.03 221.39 125.59 212.37 196.36 233.51 128.21 214.45 196.97 245.16 132.55 216.43 197.88 256.02 138.47 218.27 199.04 265.94 145.88 219.96 200.5 274.66 154.59 221.42 202.18 282.09 164.47 222.59 204.03 288.02 175.34 223.49 206 292.37 186.97 224.11 208.07 294.99 199.07 224.4 210.24 295.87 211.38 295.87 211.38 295.87 211.38"/></g><path class="cls-4" d="m123.03,70.86c.06.39.04.71-.07.96-.1.25-.28.45-.54.63s-.62.26-1.07.27c-.46,0-1,.03-1.6.08-.61.04-1.27.15-2,.34-.72.19-1.48.55-2.28,1.09-.72.49-1.28,1-1.69,1.54-.41.54-.69,1.09-.83,1.67-.15.57-.16,1.14-.03,1.7.12.57.37,1.12.73,1.66.46.68,1.03,1.13,1.7,1.33.67.21,1.42.27,2.24.18.82-.09,1.7-.26,2.64-.53s1.91-.53,2.91-.79c.99-.26,2-.45,3.03-.6,1.03-.13,2.04-.12,3.04.05.99.17,1.96.56,2.9,1.16.94.6,1.81,1.49,2.63,2.7.89,1.31,1.51,2.68,1.85,4.12.35,1.43.4,2.85.14,4.27-.25,1.41-.8,2.76-1.67,4.06-.86,1.29-2.06,2.47-3.6,3.51-.89.6-1.82,1.1-2.8,1.5-.98.4-1.97.71-2.99.9-1.01.2-2.02.3-3.03.29-1,0-1.97-.11-2.89-.32l-.26-3.6c.02-.28.08-.55.19-.82.11-.26.29-.47.53-.64.32-.21.76-.31,1.32-.29.56.02,1.2.02,1.94.02.73,0,1.53-.11,2.4-.3.87-.19,1.79-.62,2.75-1.26,1.47-1,2.36-2.14,2.68-3.42.31-1.27,0-2.59-.92-3.96-.52-.76-1.12-1.26-1.82-1.5-.69-.23-1.45-.31-2.27-.23-.82.08-1.7.27-2.62.56-.93.29-1.87.57-2.85.85-.98.27-1.98.48-3,.62-1.02.14-2.04.12-3.05-.08-1.01-.18-2-.62-2.98-1.27s-1.91-1.64-2.81-2.96c-.72-1.06-1.21-2.23-1.49-3.5-.28-1.27-.29-2.57-.04-3.87.25-1.3.78-2.57,1.59-3.8.81-1.23,1.94-2.34,3.38-3.32,1.64-1.11,3.34-1.87,5.08-2.27s3.43-.45,5.06-.15l.46,3.4Z"/><path class="cls-4" d="m151.56,50.18l2.15,4.91-9.25,4.05,11.91,27.2-5.72,2.5-11.91-27.2-9.3,4.07-2.15-4.91,24.27-10.63Z"/><path class="cls-4" d="m193.68,75.96l-4.71,1.07c-.53.12-1,.08-1.4-.12-.4-.19-.72-.48-.97-.86l-4.04-6.41-13.56,3.1-.85,7.53c-.04.39-.2.78-.49,1.16-.28.38-.68.63-1.2.75l-4.73,1.08,5.04-37.11,6.23-1.42,20.67,31.23Zm-24.14-8.06l10.44-2.39-6.58-10.45c-.3-.47-.63-1.02-1.01-1.65-.38-.64-.76-1.33-1.16-2.09-.03.85-.06,1.65-.11,2.39-.04.74-.1,1.39-.18,1.96l-1.4,12.23Z"/><path class="cls-4" d="m202,62.51l.08,13.7-6.25.03-.18-35.05,10.24-.05c2.29-.01,4.25.22,5.89.71,1.63.48,2.98,1.17,4.03,2.05,1.05.89,1.82,1.95,2.32,3.18.49,1.23.74,2.58.75,4.08,0,1.18-.15,2.3-.48,3.35-.33,1.05-.8,2-1.43,2.86-.62.87-1.39,1.62-2.31,2.27-.92.65-1.96,1.17-3.14,1.57.79.46,1.48,1.13,2.05,2l8.47,12.9-5.62.03c-.54,0-1.01-.1-1.39-.33-.38-.23-.7-.55-.97-.97l-7.12-11.19c-.27-.42-.55-.71-.88-.89-.32-.18-.79-.27-1.41-.27l-2.67.02Zm-.02-4.68l3.9-.02c1.17,0,2.2-.17,3.07-.48.88-.31,1.6-.74,2.15-1.28s.98-1.19,1.25-1.93.41-1.56.41-2.45c0-1.78-.58-3.14-1.71-4.09-1.13-.95-2.85-1.42-5.15-1.4l-4,.02.06,11.64Z"/><path class="cls-4" d="m252.99,46.53l-.99,5.26-9.93-1.87-5.48,29.18-6.14-1.15,5.48-29.18-9.97-1.87.99-5.27,26.04,4.89Z"/><path class="cls-4" d="m263.49,82.09c1.11.47,2.19.7,3.23.68,1.04-.02,2.01-.25,2.92-.7.9-.44,1.72-1.09,2.46-1.96.74-.86,1.37-1.91,1.89-3.14l8.16-19.34,5.76,2.43-8.16,19.34c-.81,1.92-1.86,3.57-3.13,4.95s-2.73,2.43-4.34,3.14c-1.61.71-3.35,1.07-5.21,1.06-1.87,0-3.79-.43-5.77-1.26-1.98-.84-3.63-1.92-4.93-3.25-1.3-1.33-2.26-2.82-2.86-4.47-.61-1.65-.86-3.41-.77-5.3.09-1.87.55-3.78,1.36-5.7l8.16-19.34,5.76,2.43-8.15,19.32c-.52,1.24-.83,2.42-.93,3.55-.1,1.14,0,2.18.3,3.14.3.96.81,1.82,1.52,2.57.71.76,1.63,1.37,2.74,1.84Z"/><path class="cls-4" d="m290.64,88.59l-7.15,10.05-5.09-3.62,20.31-28.57,8.92,6.34c1.83,1.3,3.25,2.65,4.27,4.04,1.02,1.4,1.68,2.81,1.98,4.23.3,1.42.26,2.84-.12,4.26s-1.04,2.79-1.98,4.12c-.98,1.38-2.11,2.49-3.37,3.33-1.26.84-2.63,1.36-4.1,1.56-1.47.2-3.04.06-4.69-.42-1.65-.48-3.37-1.36-5.15-2.62l-3.83-2.71Zm2.95-4.15l3.83,2.72c.93.66,1.83,1.11,2.7,1.36s1.69.31,2.47.18c.78-.12,1.51-.44,2.21-.93.69-.48,1.32-1.14,1.89-1.94.54-.77.92-1.53,1.13-2.32.21-.78.25-1.55.1-2.31-.15-.76-.48-1.5-1.01-2.23-.53-.72-1.26-1.41-2.2-2.07l-3.83-2.73-7.29,10.26Z"/></svg>