<svg xmlns="http://www.w3.org/2000/svg" xmlns:xlink="http://www.w3.org/1999/xlink" width="789" height="194" viewBox="0 0 789 194">
  <defs>
    <style>
      .cls-1 {
        clip-path: url(#clip-logo-gnoss-azul);
      }

      .cls-2 {
        fill: #006fff;
      }
    </style>
    <clipPath id="clip-logo-gnoss-azul">
      <rect width="789" height="194"/>
    </clipPath>
  </defs>
  <g id="logo-gnoss-azul" class="cls-1">
    <path id="Trazado_1285" data-name="Trazado 1285" class="cls-2" d="M2.813,20.69A19.407,19.407,0,0,1,8.487,6.384,19.1,19.1,0,0,1,22.549.71H34.387V-11.128A19.1,19.1,0,0,1,40.061-25.19a19.407,19.407,0,0,1,14.306-5.674h62.654a19.407,19.407,0,0,1,14.306,5.674A19.407,19.407,0,0,1,137-10.884V99.131a19.407,19.407,0,0,1-5.674,14.306,19.1,19.1,0,0,1-14.061,5.674H105.428v12.083a18.685,18.685,0,0,1-5.674,13.922,19.626,19.626,0,0,1-14.306,5.552H22.793a19.407,19.407,0,0,1-14.306-5.674,20.239,20.239,0,0,1,0-28.106,19.407,19.407,0,0,1,14.306-5.674H97.534v-7.893H54.367a19.4,19.4,0,0,1-19.98-19.976V71.751H22.793A19.4,19.4,0,0,1,2.813,51.77ZM97.534,8.6H42.267V63.87H97.534ZM257.851,83.344V8.6H202.584V83.344a19.377,19.377,0,0,1-19.968,19.976,18.685,18.685,0,0,1-13.922-5.674,19.626,19.626,0,0,1-5.565-14.3v-94.23A19.407,19.407,0,0,1,168.8-25.19a19.407,19.407,0,0,1,14.306-5.674H245.76a19.407,19.407,0,0,1,14.31,5.674,19.407,19.407,0,0,1,5.674,14.306V.71h11.593a19.4,19.4,0,0,1,19.981,19.98V83.344a19.4,19.4,0,0,1-19.985,19.976,18.685,18.685,0,0,1-13.922-5.674,19.626,19.626,0,0,1-5.565-14.3Zm97.164-94.722A18.685,18.685,0,0,1,360.69-25.3,19.626,19.626,0,0,1,375-30.852h31.08a19.407,19.407,0,0,1,14.306,5.674,19.407,19.407,0,0,1,5.674,14.306V.722h11.59A19.4,19.4,0,0,1,457.63,20.7V51.78a19.407,19.407,0,0,1-5.674,14.306,19.1,19.1,0,0,1-14.061,5.674H426.056V83.851a18.685,18.685,0,0,1-5.674,13.922,19.626,19.626,0,0,1-14.306,5.548H375a19.4,19.4,0,0,1-19.98-19.976V71.751h-11.6a19.4,19.4,0,0,1-19.981-19.98V20.69a19.407,19.407,0,0,1,5.674-14.306A19.094,19.094,0,0,1,343.177.71h11.838ZM418.163,8.6H362.909V63.87h55.267Zm105.049,7.9h74.741a19.4,19.4,0,0,1,19.981,19.98V51.77a19.407,19.407,0,0,1-5.674,14.306,19.094,19.094,0,0,1-14.06,5.675H586.36V83.838a18.685,18.685,0,0,1-5.674,13.922,19.626,19.626,0,0,1-14.3,5.56H503.734a19.407,19.407,0,0,1-14.306-5.674,19.094,19.094,0,0,1-5.691-14.057,19.094,19.094,0,0,1,5.674-14.061,19.407,19.407,0,0,1,14.306-5.674h74.741v-7.89H503.734a19.4,19.4,0,0,1-19.98-19.98V20.69a19.407,19.407,0,0,1,5.674-14.306A19.094,19.094,0,0,1,503.489.71h11.838V-11.128A19.1,19.1,0,0,1,521-25.19a19.407,19.407,0,0,1,14.306-5.674H597.96a19.407,19.407,0,0,1,14.306,5.674,19.407,19.407,0,0,1,5.674,14.306,18.686,18.686,0,0,1-5.674,13.922,19.626,19.626,0,0,1-14.3,5.552H523.221Zm160.316,0H758.27a19.4,19.4,0,0,1,19.98,19.98V51.77a19.407,19.407,0,0,1-5.674,14.306,19.1,19.1,0,0,1-14.061,5.674H746.677V83.838A18.685,18.685,0,0,1,741,97.76a19.626,19.626,0,0,1-14.3,5.56H664.05a19.407,19.407,0,0,1-14.306-5.674,19.1,19.1,0,0,1-5.691-14.057,19.094,19.094,0,0,1,5.674-14.061,19.407,19.407,0,0,1,14.306-5.674h74.741v-7.89H664.05a19.4,19.4,0,0,1-19.98-19.98V20.69a19.407,19.407,0,0,1,5.674-14.306A19.1,19.1,0,0,1,663.805.71h11.838V-11.128a19.094,19.094,0,0,1,5.674-14.061,19.407,19.407,0,0,1,14.306-5.674h62.654a19.407,19.407,0,0,1,14.306,5.674,19.407,19.407,0,0,1,5.674,14.306,18.686,18.686,0,0,1-5.674,13.922A19.626,19.626,0,0,1,758.278,8.59H683.537Z" transform="translate(4.196 37.097)"/>
  </g>
</svg>
