<?xml version="1.0" encoding="UTF-8" standalone="no"?>
<svg
   viewBox="0 0 2558.85 894.18"
   version="1.1"
   id="svg379"
   sodipodi:docname="RDFox-OSTFinalMixPath.svg"
   inkscape:version="1.1 (c68e22c387, 2021-05-23)"
   xmlns:inkscape="http://www.inkscape.org/namespaces/inkscape"
   xmlns:sodipodi="http://sodipodi.sourceforge.net/DTD/sodipodi-0.dtd"
   xmlns="http://www.w3.org/2000/svg"
   xmlns:svg="http://www.w3.org/2000/svg">
  <sodipodi:namedview
     id="namedview21"
     pagecolor="#505050"
     bordercolor="#eeeeee"
     borderopacity="1"
     inkscape:pageshadow="0"
     inkscape:pageopacity="0"
     inkscape:pagecheckerboard="0"
     showgrid="false"
     inkscape:zoom="0.20673349"
     inkscape:cx="1192.3564"
     inkscape:cy="116.0915"
     inkscape:window-width="1920"
     inkscape:window-height="992"
     inkscape:window-x="-8"
     inkscape:window-y="-8"
     inkscape:window-maximized="1"
     inkscape:current-layer="Layer_2" />
  <defs
     id="defs351">
    <style
       id="style349">.cls-1{font-size:500px;font-family:HelveticaNeue, Helvetica Neue;}.cls-1,.cls-5{fill:#002147;}.cls-2,.cls-3{font-family:HelveticaNeue-Thin, Helvetica Neue;font-weight:200;}.cls-2{letter-spacing:-0.01em;}.cls-4{fill:none;stroke:#002147;stroke-miterlimit:10;stroke-width:10px;}</style>
  </defs>
  <g
     id="Layer_2"
     data-name="Layer 2"
     inkscape:export-filename="C:\Users\Thomas\Downloads\RDFox-OSTFinalPrimaryPath"
     inkscape:export-xdpi="400"
     inkscape:export-ydpi="400">
    <path
       d="m 965.36,296.68 v 357 h 47.5 v -152.5 h 116 q 17.5,0 28,5.5 10.5,5 17,14 6.5,8.5 9.5,20.5 3,11.5 5,24.5 2.5,13 3,26.5 0.5,13.5 1,25.5 0.5,11.5 2,21 2,9.5 7,15 h 53 q -7.5,-9 -11.5,-20.5 -3.5,-12 -5.5,-25 -2,-13 -2.5,-26.5 -0.5,-13.5 -1.5,-26.5 -1.5,-13 -4.5,-25 -2.5,-12 -8.5,-21.5 -5.5,-10 -15.5,-17 -9.5,-7 -25,-10 v -1 q 32.5,-9 47,-33.5 15,-24.5 15,-57 0,-43.5 -29,-68.5 -28.5,-25 -79.5,-25 z m 146.5,164.5 h -99 v -124.5 h 118 q 33.5,0 48.5,17 15,17 15,44 0,19.5 -7,32 -6.5,12 -18,19.5 -11,7 -26,9.5 -15,2.5 -31.5,2.5 z"
       style="font-size:500px;font-family:HelveticaNeue, 'Helvetica Neue';fill:#002147"
       id="path463" />
    <path
       d="m 1355.6334,613.68 v -277 h 80 q 33,0 55.5,9.5 22.5,9 36.5,27 14.5,17.5 20.5,43 6.5,25 6.5,57 0,33 -7,56.5 -6.5,23 -17,38.5 -10.5,15.5 -24,24.5 -13,9 -26.5,14 -13.5,4.5 -25.5,6 -12,1 -20,1 z m -47.5,-317 v 357 h 122.5 q 44.5,0 77,-12.5 32.5,-12.5 53.5,-36 21,-24 31,-58.5 10,-35 10,-80 0,-86 -44.5,-128 -44.5,-42 -127,-42 z"
       style="font-size:500px;font-family:HelveticaNeue, 'Helvetica Neue';fill:#002147"
       id="path465" />
    <path
       d="m 1659.6959,296.68 v 357 h 47.5 v -163.5 h 164 v -40 h -164 v -113.5 h 187 v -40 z"
       style="font-size:500px;font-family:HelveticaNeue, 'Helvetica Neue';fill:#002147"
       id="path467" />
    <path
       d="m 2262.85,475.18 q 0,39 -11.5,73.5 -11.5,34 -33.5,59.5 -21.5,25 -53,39.5 -31.5,14.5 -71.5,14.5 -40,0 -72,-14.5 -31.5,-14.5 -53.5,-39.5 -21.5,-25.5 -33,-59.5 -11.5,-34.5 -11.5,-73.5 0,-39 11.5,-73 11.5,-34.5 33,-59.5 22,-25.5 53.5,-40 32,-14.5 72,-14.5 40,0 71.5,14.5 31.5,14.5 53,40 22,25 33.5,59.5 11.5,34 11.5,73 z m -317.5,0 q 0,34.5 10,65 10,30.5 29,53.5 19,22.5 46.5,36 27.5,13.5 62.5,13.5 35,0 62,-13.5 27.5,-13.5 46.5,-36 19,-23 29,-53.5 10,-30.5 10,-65 0,-34.5 -10,-65 -10,-30.5 -29,-53 -19,-23 -46.5,-36.5 -27,-13.5 -62,-13.5 -35,0 -62.5,13.5 -27.5,13.5 -46.5,36.5 -19,22.5 -29,53 -10,30.5 -10,65 z"
       style="font-weight:200;font-size:500px;font-family:HelveticaNeue-Thin, 'Helvetica Neue';letter-spacing:-0.01em;fill:#11dbf7;fill-opacity:1"
       id="path469" />
    <path
       d="m 2272.85,296.68 h 25.5 l 113,157 115.5,-157 h 25 l -126,173.5 133,183.5 h -26.5 l -121,-167 -121.5,167 h -26 l 134,-183.5 z"
       style="font-weight:200;font-size:500px;font-family:HelveticaNeue-Thin, 'Helvetica Neue';fill:#11dbf7;fill-opacity:1"
       id="path471" />
    <polygon
       class="cls-4"
       points="528.09,189.72 87.88,443.87 528.09,698.03 "
       id="polygon361" />
    <circle
       class="cls-4"
       cx="381.35001"
       cy="443.88"
       r="315.07999"
       id="circle363" />
    <path
       class="cls-5"
       d="m 114.14,555.72 a 288.18,288.18 0 0 1 -0.69,-222 292.88,292.88 0 0 1 16.35,-33.59 l -43.31,-25 A 346,346 0 0 0 67.19,314.73 339.11,339.11 0 0 0 68,575 341.74,341.74 0 0 0 86.5,612.63 l 43.29,-25 a 294.78,294.78 0 0 1 -15.65,-31.91 z"
       id="path365" />
    <path
       class="cls-5"
       d="m 383.29,153.66 a 290.88,290.88 0 0 1 249,143.86 l 43.29,-25 A 340.44,340.44 0 0 0 383.29,103.74 Z"
       id="path367" />
    <path
       class="cls-5"
       d="m 632.28,590.23 a 290.88,290.88 0 0 1 -249,143.87 V 784 h 2 a 339.81,339.81 0 0 0 290.3,-168.77 z"
       id="path369" />
    <path
       class="cls-5"
       d="m 729.55,296.65 a 374.48,374.48 0 0 1 0.9,288.5 381,381 0 0 1 -21.25,43.64 l 56.28,32.49 a 446.68,446.68 0 0 0 25.08,-51.46 440.67,440.67 0 0 0 -1.06,-338.22 448.45,448.45 0 0 0 -24,-48.89 l -56.26,32.48 a 383.73,383.73 0 0 1 20.31,41.46 z"
       id="path371" />
    <path
       class="cls-5"
       d="M 56.26,251.82 A 378,378 0 0 1 379.81,64.88 V 0 c -0.85,0 -1.7,0 -2.55,0 A 441.58,441.58 0 0 0 0,219.33 Z"
       id="path373" />
    <path
       class="cls-5"
       d="M 379.81,819.11 A 378,378 0 0 1 56.27,632.17 L 0,664.64 A 442.46,442.46 0 0 0 379.81,884 Z"
       id="path375" />
  </g>
  <g
     aria-label="Oxford SemanticTechnologies"
     id="text21"
     class="cls-1"
     style="font-size:500px;font-family:HelveticaNeue, 'Helvetica Neue';fill:#002147"
     transform="matrix(0.26344151,0,0,0.26344151,507.60606,644.88188)"
     inkscape:export-filename="C:\Users\Thomas\Downloads\RDFox-OSTFinalPrimaryPath"
     inkscape:export-xdpi="400"
     inkscape:export-ydpi="400">
    <path
       d="m 1027.95,473.37 q 0,-27 7,-53 7,-26.5 22,-47.5 15,-21 38.5,-33.5 23.5,-13 56,-13 32.5,0 56,13 23.5,12.5 38.5,33.5 15,21 22,47.5 7,26 7,53 0,27 -7,53.5 -7,26 -22,47 -15,21 -38.5,34 -23.5,12.5 -56,12.5 -32.5,0 -56,-12.5 -23.5,-13 -38.5,-34 -15,-21 -22,-47 -7,-26.5 -7,-53.5 z m -47.49999,0 q 0,36.5 10.5,70.5 10.99999,33.5 32.49999,59.5 21.5,26 53.5,41.5 32,15 74.5,15 42.5,0 74.5,-15 32,-15.5 53.5,-41.5 21.5,-26 32,-59.5 11,-34 11,-70.5 0,-36.5 -11,-70 -10.5,-34 -32,-60 -21.5,-26 -53.5,-41.5 -32,-15.5 -74.5,-15.5 -42.5,0 -74.5,15.5 -32,15.5 -53.5,41.5 -21.5,26 -32.49999,60 -10.5,33.5 -10.5,70 z"
       style="font-size:500px;font-family:HelveticaNeue, 'Helvetica Neue';fill:#002147"
       id="path210" />
    <path
       d="m 1442.8328,515.87 -97,136 h 51.5 l 72,-107 72,107 h 54.5 l -100,-139.5 89,-119 h -51 l -64.5,90.5 -62,-90.5 h -54.5 z"
       style="font-size:500px;font-family:HelveticaNeue, 'Helvetica Neue';fill:#002147"
       id="path212" />
    <path
       d="m 1649.6219,430.87 v 221 h 42.5 v -221 h 50 v -37.5 h -50 v -36 q 0,-17 8.5,-23 8.5,-6 24,-6 5.5,0 12,1 6.5,0.5 12,2.5 v -37 q -6,-2 -14,-3 -7.5,-1 -13.5,-1 -35,0 -53.5,16.5 -18,16 -18,47.5 v 38.5 h -43.5 v 37.5 z"
       style="font-size:500px;font-family:HelveticaNeue, 'Helvetica Neue';fill:#002147"
       id="path214" />
    <path
       d="m 1811.5594,522.87 q 0,-23.5 6,-41.5 6.5,-18.5 17.5,-31 11,-12.5 25.5,-19 15,-6.5 31.5,-6.5 16.5,0 31,6.5 15,6.5 26,19 11,12.5 17,31 6.5,18 6.5,41.5 0,23.5 -6.5,42 -6,18 -17,30.5 -11,12 -26,18.5 -14.5,6.5 -31,6.5 -16.5,0 -31.5,-6.5 -14.5,-6.5 -25.5,-18.5 -11,-12.5 -17.5,-30.5 -6,-18.5 -6,-42 z m -45,0 q 0,28.5 8,53 8,24.5 24,43 16,18 39.5,28.5 23.5,10 54,10 31,0 54,-10 23.5,-10.5 39.5,-28.5 16,-18.5 24,-43 8,-24.5 8,-53 0,-28.5 -8,-53 -8,-25 -24,-43 -16,-18.5 -39.5,-29 -23,-10.5 -54,-10.5 -30.5,0 -54,10.5 -23.5,10.5 -39.5,29 -16,18 -24,43 -8,24.5 -8,53 z"
       style="font-size:500px;font-family:HelveticaNeue, 'Helvetica Neue';fill:#002147"
       id="path216" />
    <path
       d="m 2065.9299,393.37 v 258.5 h 42.5 v -115 q 0,-25 5,-44 5,-19.5 16,-33 11,-13.5 29,-20.5 18,-7 43.5,-7 v -45 q -34.5,-1 -57,14 -22.5,15 -38,46.5 h -1 v -54.5 z"
       style="letter-spacing:-0.02em"
       id="path218" />
    <path
       d="m 2255.9299,524.87 q 0,-19 4,-37 4,-18 13,-32 9,-14 24,-22.5 15,-8.5 36.5,-8.5 22,0 37.5,8.5 15.5,8 25,21.5 10,13.5 14.5,31.5 4.5,17.5 4.5,36.5 0,18 -4.5,35.5 -4,17.5 -13.5,31.5 -9.5,13.5 -24.5,22 -15,8.5 -36.5,8.5 -20.5,0 -36,-8 -15,-8 -25,-21.5 -9.5,-13.5 -14.5,-30.5 -4.5,-17.5 -4.5,-35.5 z m 200,127 v -357 h -42.5 v 133 h -1 q -7,-11.5 -17.5,-19 -10,-8 -21.5,-12.5 -11.5,-5 -23,-7 -11.5,-2 -21.5,-2 -29.5,0 -52,11 -22,10.5 -37,29 -14.5,18 -22,42.5 -7,24.5 -7,52 0,27.5 7.5,52 7.5,24.5 22,43 15,18.5 37,29.5 22.5,11 52.5,11 27,0 49.5,-9.5 22.5,-9.5 33,-31 h 1 v 35 z"
       id="path220" />
    <path
       d="m 2873.9768,399.37 h 45 q -1,-29.5 -11.5,-50.5 -10,-21.5 -28,-35.5 -17.5,-14 -41,-20.5 -23.5,-6.5 -51,-6.5 -24.5,0 -48,6.5 -23,6 -41.5,19 -18,12.5 -29,32.5 -11,19.5 -11,46.5 0,24.5 9.5,41 10,16 26,26.5 16.5,10 37,16.5 20.5,6 41.5,11 21.5,4.5 42,9 20.5,4.5 36.5,12 16.5,7 26,18.5 10,11.5 10,30 0,19.5 -8,32 -8,12.5 -21,20 -13,7 -29.5,10 -16,3 -32,3 -20,0 -39,-5 -19,-5 -33.5,-15.5 -14,-10.5 -23,-26.5 -8.5,-16.5 -8.5,-39 h -45 q 0,32.5 11.5,56.5 12,23.5 32,39 20.5,15 47,22.5 27,7.5 57,7.5 24.5,0 49,-6 25,-5.5 45,-18 20,-13 32.5,-33 13,-20.5 13,-49 0,-26.5 -10,-44 -9.5,-17.5 -26,-29 -16,-11.5 -36.5,-18 -20.5,-7 -42,-12 -21,-5 -41.5,-9 -20.5,-4.5 -37,-11 -16,-6.5 -26,-16.5 -9.5,-10.5 -9.5,-27 0,-17.5 6.5,-29 7,-12 18,-19 11.5,-7 26,-10 14.5,-3 29.5,-3 37,0 60.5,17.5 24,17 28,55.5 z"
       id="path222" />
    <path
       d="m 3164.1956,497.87 h -148.5 q 1,-15 6.5,-28 5.5,-13.5 15,-23.5 9.5,-10 22.5,-15.5 13.5,-6 30,-6 16,0 29,6 13.5,5.5 23,15.5 10,9.5 15.5,23 6,13.5 7,28.5 z m 41,72 h -42 q -5.5,25.5 -23,38 -17,12.5 -44,12.5 -21,0 -36.5,-7 -15.5,-7 -25.5,-18.5 -10,-12 -14.5,-27 -4.5,-15.5 -4,-32.5 h 193.5 q 1,-23.5 -4.5,-49.5 -5,-26 -19,-48 -13.5,-22 -36.5,-36 -22.5,-14.5 -57,-14.5 -26.5,0 -49,10 -22,10 -38.5,28 -16,18 -25,42.5 -9,24.5 -9,54 1,29.5 8.5,54.5 8,25 23.5,43 15.5,18 38,28 23,10 54,10 44,0 73,-22 29,-22 37.5,-65.5 z"
       id="path224" />
    <path
       d="m 3253.2502,393.37 v 258.5 h 42.5 v -161 q 0,-7.5 3.5,-18.5 4,-11.5 12,-22 8.5,-10.5 21.5,-18 13.5,-7.5 32,-7.5 14.5,0 23.5,4.5 9.5,4 15,12 5.5,7.5 7.5,18 2.5,10.5 2.5,23 v 169.5 h 42.5 v -161 q 0,-30 18,-48 18,-18 49.5,-18 15.5,0 25,4.5 10,4.5 15.5,12.5 5.5,7.5 7.5,18 2,10.5 2,22.5 v 169.5 h 42.5 v -189.5 q 0,-20 -6.5,-34 -6,-14.5 -17.5,-23.5 -11,-9 -27,-13 -15.5,-4.5 -35,-4.5 -25.5,0 -47,11.5 -21,11.5 -34,32.5 -8,-24 -27.5,-34 -19.5,-10 -43.5,-10 -54.5,0 -83.5,44 h -1 v -38 z"
       id="path226" />
    <path
       d="m 3909.0081,650.87 q -11,6.5 -30.5,6.5 -16.5,0 -26.5,-9 -9.5,-9.5 -9.5,-30.5 -17.5,21 -41,30.5 -23,9 -50,9 -17.5,0 -33.5,-4 -15.5,-4 -27,-12.5 -11.5,-8.5 -18.5,-22 -6.5,-14 -6.5,-33.5 0,-22 7.5,-36 7.5,-14 19.5,-22.5 12.5,-9 28,-13.5 16,-4.5 32.5,-7.5 17.5,-3.5 33,-5 16,-2 28,-5 12,-3.5 19,-9.5 7,-6.5 7,-18.5 0,-14 -5.5,-22.5 -5,-8.5 -13.5,-13 -8,-4.5 -18.5,-6 -10,-1.5 -20,-1.5 -27,0 -45,10.5 -18,10 -19.5,38.5 h -42.5 q 1,-24 10,-40.5 9,-16.5 24,-26.5 15,-10.5 34,-15 19.5,-4.5 41.5,-4.5 17.5,0 34.5,2.5 17.5,2.5 31.5,10.5 14,7.5 22.5,21.5 8.5,14 8.5,36.5 v 133 q 0,15 1.5,22 2,7 12,7 5.5,0 13,-2.5 z m -69,-132.5 q -8,6 -21,9 -13,2.5 -27.5,4.5 -14,1.5 -28.5,4 -14.5,2 -26,7 -11.5,5 -19,14.5 -7,9 -7,25 0,10.5 4,18 4.5,7 11,11.5 7,4.5 16,6.5 9,2 19,2 21,0 36,-5.5 15,-6 24.5,-14.5 9.5,-9 14,-19 4.5,-10.5 4.5,-19.5 z"
       id="path228" />
    <path
       d="m 3948.5627,393.37 v 258.5 h 42.5 v -146 q 0,-17.5 4.5,-32 5,-15 14.5,-26 9.5,-11 23.5,-17 14.5,-6 34,-6 24.5,0 38.5,14 14,14 14,38 v 175 h 42.5 v -170 q 0,-21 -4.5,-38 -4,-17.5 -14.5,-30 -10.5,-12.5 -27.5,-19.5 -17,-7 -42.5,-7 -57.5,0 -84,47 h -1 v -41 z"
       id="path230" />
    <path
       d="m 4285.8831,393.37 v -77.5 h -42.5 v 77.5 h -44 v 37.5 h 44 v 164.5 q 0,18 3.5,29 3.5,11 10.5,17 7.5,6 19,8.5 12,2 28.5,2 h 32.5 v -37.5 h -19.5 q -10,0 -16.5,-0.5 -6,-1 -9.5,-3.5 -3.5,-2.5 -5,-7 -1,-4.5 -1,-12 v -160.5 h 51.5 v -37.5 z"
       id="path232" />
    <path
       d="m 4429.1096,346.87 v -52 h -42.5 v 52 z m -42.5,46.5 v 258.5 h 42.5 v -258.5 z"
       id="path234" />
    <path
       d="m 4670.9377,476.37 h 44 q -2.5,-23 -12,-39.5 -9.5,-17 -24.5,-28 -14.5,-11 -34,-16 -19,-5.5 -41,-5.5 -30.5,0 -53.5,11 -23,10.5 -38.5,29.5 -15,18.5 -22.5,44 -7.5,25 -7.5,54 0,29 7.5,53.5 8,24 23,41.5 15.5,17.5 38,27 23,9.5 52.5,9.5 49.5,0 78,-26 29,-26 36,-74 h -43.5 q -4,30 -22,46.5 -17.5,16.5 -49,16.5 -20,0 -34.5,-8 -14.5,-8 -23.5,-21 -9,-13.5 -13.5,-30.5 -4,-17 -4,-35 0,-19.5 4,-37.5 4,-18.5 13,-32.5 9.5,-14 25,-22.5 15.5,-8.5 38.5,-8.5 27,0 43,13.5 16,13.5 21,38 z"
       id="path236" />
    <path
       d="m 4989.8901,334.87 v 317 h 47.5 v -317 h 119 v -40 h -285.5 v 40 z"
       style="letter-spacing:-0.11em"
       id="path238" />
    <path
       d="m 5312.8901,497.87 h -148.5 q 1,-15 6.5,-28 5.5,-13.5 15,-23.5 9.5,-10 22.5,-15.5 13.5,-6 30,-6 16,0 29,6 13.5,5.5 23,15.5 10,9.5 15.5,23 6,13.5 7,28.5 z m 41,72 h -42 q -5.5,25.5 -23,38 -17,12.5 -44,12.5 -21,0 -36.5,-7 -15.5,-7 -25.5,-18.5 -10,-12 -14.5,-27 -4.5,-15.5 -4,-32.5 h 193.5 q 1,-23.5 -4.5,-49.5 -5,-26 -19,-48 -13.5,-22 -36.5,-36 -22.5,-14.5 -57,-14.5 -26.5,0 -49,10 -22,10 -38.5,28 -16,18 -25,42.5 -9,24.5 -9,54 1,29.5 8.5,54.5 8,25 23.5,43 15.5,18 38,28 23,10 54,10 44,0 73,-22 29,-22 37.5,-65.5 z"
       id="path240" />
    <path
       d="m 5577.4448,476.37 h 44 q -2.5,-23 -12,-39.5 -9.5,-17 -24.5,-28 -14.5,-11 -34,-16 -19,-5.5 -41,-5.5 -30.5,0 -53.5,11 -23,10.5 -38.5,29.5 -15,18.5 -22.5,44 -7.5,25 -7.5,54 0,29 7.5,53.5 8,24 23,41.5 15.5,17.5 38,27 23,9.5 52.5,9.5 49.5,0 78,-26 29,-26 36,-74 h -43.5 q -4,30 -22,46.5 -17.5,16.5 -49,16.5 -20,0 -34.5,-8 -14.5,-8 -23.5,-21 -9,-13.5 -13.5,-30.5 -4,-17 -4,-35 0,-19.5 4,-37.5 4,-18.5 13,-32.5 9.5,-14 25,-22.5 15.5,-8.5 38.5,-8.5 27,0 43,13.5 16,13.5 21,38 z"
       id="path242" />
    <path
       d="m 5670.4995,294.87 v 357 h 42.5 v -146 q 0,-17.5 4.5,-32 5,-15 14.5,-26 9.5,-11 23.5,-17 14.5,-6 34,-6 24.5,0 38.5,14 14,14 14,38 v 175 h 42.5 v -170 q 0,-21 -4.5,-38 -4,-17.5 -14.5,-30 -10.5,-12.5 -27.5,-19.5 -17,-7 -42.5,-7 -11.5,0 -24,2.5 -12,2.5 -23.5,8 -11,5 -20,13.5 -9,8 -14,20 h -1 v -136.5 z"
       id="path244" />
    <path
       d="m 5948.8198,393.37 v 258.5 h 42.5 v -146 q 0,-17.5 4.5,-32 5,-15 14.5,-26 9.5,-11 23.5,-17 14.5,-6 34,-6 24.5,0 38.5,14 14,14 14,38 v 175 h 42.5 v -170 q 0,-21 -4.5,-38 -4,-17.5 -14.5,-30 -10.5,-12.5 -27.5,-19.5 -17,-7 -42.5,-7 -57.5,0 -84,47 h -1 v -41 z"
       id="path246" />
    <path
       d="m 6258.1401,522.87 q 0,-23.5 6,-41.5 6.5,-18.5 17.5,-31 11,-12.5 25.5,-19 15,-6.5 31.5,-6.5 16.5,0 31,6.5 15,6.5 26,19 11,12.5 17,31 6.5,18 6.5,41.5 0,23.5 -6.5,42 -6,18 -17,30.5 -11,12 -26,18.5 -14.5,6.5 -31,6.5 -16.5,0 -31.5,-6.5 -14.5,-6.5 -25.5,-18.5 -11,-12.5 -17.5,-30.5 -6,-18.5 -6,-42 z m -45,0 q 0,28.5 8,53 8,24.5 24,43 16,18 39.5,28.5 23.5,10 54,10 31,0 54,-10 23.5,-10.5 39.5,-28.5 16,-18.5 24,-43 8,-24.5 8,-53 0,-28.5 -8,-53 -8,-25 -24,-43 -16,-18.5 -39.5,-29 -23,-10.5 -54,-10.5 -30.5,0 -54,10.5 -23.5,10.5 -39.5,29 -16,18 -24,43 -8,24.5 -8,53 z"
       id="path248" />
    <path
       d="m 6516.7495,294.87 v 357 h 42.5 v -357 z"
       id="path250" />
    <path
       d="m 6656.5776,522.87 q 0,-23.5 6,-41.5 6.5,-18.5 17.5,-31 11,-12.5 25.5,-19 15,-6.5 31.5,-6.5 16.5,0 31,6.5 15,6.5 26,19 11,12.5 17,31 6.5,18 6.5,41.5 0,23.5 -6.5,42 -6,18 -17,30.5 -11,12 -26,18.5 -14.5,6.5 -31,6.5 -16.5,0 -31.5,-6.5 -14.5,-6.5 -25.5,-18.5 -11,-12.5 -17.5,-30.5 -6,-18.5 -6,-42 z m -45,0 q 0,28.5 8,53 8,24.5 24,43 16,18 39.5,28.5 23.5,10 54,10 31,0 54,-10 23.5,-10.5 39.5,-28.5 16,-18.5 24,-43 8,-24.5 8,-53 0,-28.5 -8,-53 -8,-25 -24,-43 -16,-18.5 -39.5,-29 -23,-10.5 -54,-10.5 -30.5,0 -54,10.5 -23.5,10.5 -39.5,29 -16,18 -24,43 -8,24.5 -8,53 z"
       id="path252" />
    <path
       d="m 7135.687,629.87 v -236.5 h -40 v 37 h -0.5 q -11.5,-21.5 -32,-32 -20.5,-11 -45,-11 -33.5,0 -56.5,13 -23,12.5 -37,32.5 -14,19.5 -20,44 -6,24 -6,47 0,26.5 7,50.5 7.5,23.5 22,41.5 14.5,17.5 36,28 21.5,10.5 50.5,10.5 25,0 47,-11 22.5,-11.5 33.5,-35.5 h 1 v 17 q 0,21.5 -4.5,39.5 -4,18 -13.5,30.5 -9.5,13 -24,20 -14.5,7.5 -35.5,7.5 -10.5,0 -22,-2.5 -11.5,-2 -21.5,-7 -9.5,-5 -16.5,-13 -6.5,-8 -7,-19.5 h -42.5 q 1,21 11,35.5 10,14.5 25,23.5 15.5,9 34,13 19,4 37,4 62,0 91,-31.5 29,-31.5 29,-95 z m -119,-12.5 q -21,0 -35,-8.5 -14,-9 -22.5,-23 -8.5,-14.5 -12,-32 -3.5,-17.5 -3.5,-35 0,-18.5 4,-35.5 4.5,-17 13.5,-30 9.5,-13 24,-20.5 14.5,-8 35,-8 20,0 34,8 14,8 22.5,21.5 9,13 13,29.5 4,16.5 4,33.5 0,18 -4.5,36 -4,18 -13,32.5 -9,14 -24,23 -14.5,8.5 -35.5,8.5 z"
       id="path254" />
    <path
       d="m 7244.7964,346.87 v -52 h -42.5 v 52 z m -42.5,46.5 v 258.5 h 42.5 v -258.5 z"
       id="path256" />
    <path
       d="m 7490.6245,497.87 h -148.5 q 1,-15 6.5,-28 5.5,-13.5 15,-23.5 9.5,-10 22.5,-15.5 13.5,-6 30,-6 16,0 29,6 13.5,5.5 23,15.5 10,9.5 15.5,23 6,13.5 7,28.5 z m 41,72 h -42 q -5.5,25.5 -23,38 -17,12.5 -44,12.5 -21,0 -36.5,-7 -15.5,-7 -25.5,-18.5 -10,-12 -14.5,-27 -4.5,-15.5 -4,-32.5 h 193.5 q 1,-23.5 -4.5,-49.5 -5,-26 -19,-48 -13.5,-22 -36.5,-36 -22.5,-14.5 -57,-14.5 -26.5,0 -49,10 -22,10 -38.5,28 -16,18 -25,42.5 -9,24.5 -9,54 1,29.5 8.5,54.5 8,25 23.5,43 15.5,18 38,28 23,10 54,10 44,0 73,-22 29,-22 37.5,-65.5 z"
       id="path258" />
    <path
       d="m 7605.6792,570.37 h -42.5 q 1,24 10,41 9,16.5 24,27 15,10 34.5,14.5 19.5,4.5 41,4.5 19.5,0 39,-4 20,-3.5 35.5,-13 16,-9.5 25.5,-25 10,-15.5 10,-39 0,-18.5 -7.5,-31 -7,-12.5 -19,-20.5 -11.5,-8.5 -27,-13.5 -15,-5 -31,-8.5 -15,-3.5 -30,-6.5 -15,-3.5 -27,-8 -12,-5 -20,-12 -7.5,-7.5 -7.5,-18.5 0,-10 5,-16 5,-6.5 13,-10 8,-4 17.5,-5.5 10,-1.5 19.5,-1.5 10.5,0 20.5,2.5 10.5,2 19,7 8.5,5 14,13.5 5.5,8 6.5,20.5 h 42.5 q -1.5,-23.5 -10,-39 -8.5,-16 -23,-25 -14,-9.5 -32.5,-13 -18.5,-4 -40.5,-4 -17,0 -34.5,4.5 -17,4 -31,13 -13.5,8.5 -22.5,22.5 -8.5,14 -8.5,33.5 0,25 12.5,39 12.5,14 31,22 19,7.5 41,12 22,4 40.5,9.5 19,5 31.5,13.5 12.5,8.5 12.5,25 0,12 -6,20 -6,7.5 -15.5,11.5 -9,4 -20,5.5 -11,1.5 -21,1.5 -13,0 -25.5,-2.5 -12,-2.5 -22,-8 -9.5,-6 -15.5,-15.5 -6,-10 -6.5,-24 z"
       id="path260" />
  </g>
</svg>
