<svg id="Ebene_1" data-name="Ebene 1" xmlns="http://www.w3.org/2000/svg" viewBox="0 0 525.82 159.1"><defs><style>.cls-1{fill:#00adee;}.cls-2{fill:#899196;}</style></defs><title>pp_logo</title><path class="cls-1" d="M0,157.06V73l14.52-1v9.12a25.49,25.49,0,0,1,9.35-7A31.18,31.18,0,0,1,58,81q8.91,9.32,8.91,23.1a33.88,33.88,0,0,1-2.52,13.13A31.43,31.43,0,0,1,57,128.09a29.09,29.09,0,0,1-21.16,8.59,31.24,31.24,0,0,1-11.38-2,23.76,23.76,0,0,1-8.78-5.94v27.39Zm15.69-52.88a18.28,18.28,0,0,0,5.06,13.17,16.92,16.92,0,0,0,12.65,5.27,16.72,16.72,0,0,0,12.49-5.4,18.16,18.16,0,0,0,5.14-13q0-8.08-5-13.18a18.36,18.36,0,0,0-25.45.06,18.1,18.1,0,0,0-4.94,13.12Z"/><path class="cls-1" d="M71.42,104.17a32,32,0,0,1,2.52-12.7,31.68,31.68,0,0,1,7.43-10.6,32.78,32.78,0,0,1,10.89-6.93,35,35,0,0,1,13-2.41,35.46,35.46,0,0,1,13,2.43,33.85,33.85,0,0,1,11,7.07,31.62,31.62,0,0,1,9.9,23.15,32.23,32.23,0,0,1-2.53,12.75,31.56,31.56,0,0,1-7.37,10.57,32.67,32.67,0,0,1-11,6.93,36.09,36.09,0,0,1-13.14,2.43,35,35,0,0,1-13-2.37A33.09,33.09,0,0,1,74,116.78,31.68,31.68,0,0,1,71.42,104.17Zm15.94,0a18.13,18.13,0,0,0,5.13,13.13,17.65,17.65,0,0,0,25,.21l.35-.36A19,19,0,0,0,118,91a18.34,18.34,0,0,0-25.52,0A17.92,17.92,0,0,0,87.36,104.17Z"/><path class="cls-1" d="M143.26,104.17a32.26,32.26,0,0,1,2.5-12.7,31.74,31.74,0,0,1,7.44-10.6,32.91,32.91,0,0,1,10.89-6.93,36,36,0,0,1,26,0,33.86,33.86,0,0,1,11,7.09,31.57,31.57,0,0,1,9.84,23.19A32.11,32.11,0,0,1,208.41,117a31.6,31.6,0,0,1-7.31,10.57,32.57,32.57,0,0,1-10.89,6.93A36.12,36.12,0,0,1,177,136.9a35,35,0,0,1-13-2.37,33,33,0,0,1-18.24-17.71A31.73,31.73,0,0,1,143.26,104.17Zm15.93,0a18.14,18.14,0,0,0,5.13,13.13,17.67,17.67,0,0,0,25,.19l.33-.34a19,19,0,0,0,.2-26.11A17.36,17.36,0,0,0,177,85.89a17.15,17.15,0,0,0-12.69,5.18A17.93,17.93,0,0,0,159.19,104.17Z"/><path class="cls-1" d="M213.78,134.08l17.29-93.76,15.5,2.5-17.64,93.83Z"/><path class="cls-2" d="M249.27,157.06V73l14.51-1v9.12a25.66,25.66,0,0,1,9.35-7A31.19,31.19,0,0,1,307.25,81q8.91,9.32,8.91,23.1a33.88,33.88,0,0,1-2.51,13.13A31.5,31.5,0,0,1,306.27,128a30.54,30.54,0,0,1-9.77,6.49,30.17,30.17,0,0,1-11.39,2.11,31.27,31.27,0,0,1-11.38-2,23.66,23.66,0,0,1-8.77-5.94V156.1ZM265,104.17A18.22,18.22,0,0,0,270,117.34a17.5,17.5,0,0,0,24.74.24l.39-.39a18.17,18.17,0,0,0,5.18-13c0-5.39-1.62-9.78-5-13.18a18.35,18.35,0,0,0-25.45.06A18,18,0,0,0,265,104.17Z"/><path class="cls-2" d="M358.39,136.85v-6.42a18.81,18.81,0,0,1-7.07,4.83,25.32,25.32,0,0,1-9.22,1.58c-6.64,0-12.08-2.06-16.36-6.21a21.11,21.11,0,0,1-6.4-15.79q0-9.66,6.34-15.5t16.83-5.83a28,28,0,0,1,8.17,1.14,21.78,21.78,0,0,1,6.7,3.36V92.73a6.67,6.67,0,0,0-3.07-6q-3.11-2-9.47-2a48.58,48.58,0,0,0-9.76.93,24.21,24.21,0,0,0-7,2.33l-3.3-13a98.28,98.28,0,0,1,15.15-3.24,72.53,72.53,0,0,1,8.12-.51q12.46,0,18.3,5T372.13,92v43.5Zm-23.45-22.48a8.23,8.23,0,0,0,3,6.74q3,2.43,8.33,2.43c3.49,0,6.21-.79,8.19-2.37a7.92,7.92,0,0,0,3-6.56,8.34,8.34,0,0,0-3-6.78q-3-2.47-8.11-2.46c-3.58,0-6.4.79-8.43,2.4A8,8,0,0,0,334.94,114.37Z"/><path class="cls-2" d="M454.06,122.91h-3.39q-6.48,0-8.91-2.57c-1.62-1.71-2.46-5-2.46-9.83V86.62h14.45V73H439.29V55.18l-15.63,7.62V73h-8a31.23,31.23,0,0,0-13.86,2.85,16.47,16.47,0,0,0-7.21,6.93V72L380.2,73v63.49l15.78-1V107.24q0-10.89,4.23-16c2.81-3.41,7.5-4.61,13.58-4.61h9.9v23.76q0,13.86,5.71,20.31t18.14,6.37c.71,0,2.11-.06,4.19-.17.51,0,.93-.07,1.22-.07l3.88-14C455.91,122.87,455,122.9,454.06,122.91Z"/><path class="cls-1" d="M167.38,22.23S200.17-6.55,247.15,1.38s67.66,45.77,67.66,45.77"/><path class="cls-2" d="M525.82,74.57,510.24,72,495.86,103.8c-.37.92-.75,2.07-1.18,3.43s-.84,2.85-1.29,4.49a2.48,2.48,0,0,0-.19-.59,45.08,45.08,0,0,0-2.4-6.93L474.14,72l-16.48,2.58,27.62,51.9s-2,4.18-2.6,5.61c-3.7,9-6.4,12.16-12.56,12.1a17.82,17.82,0,0,1-5.43-.8l-4,14A37.25,37.25,0,0,0,472,159.1c12.69-.42,19.32-6.52,25.11-20.71C503.78,122.17,525.82,74.57,525.82,74.57Z"/></svg>